<svg width="46" height="32" viewBox="0 0 46 32" fill="none" xmlns="http://www.w3.org/2000/svg">
<path d="M0 3.13181C0 2.55786 0.242321 2.0074 0.673654 1.60155C1.10499 1.1957 1.69 0.967697 2.3 0.967697H43.7C44.31 0.967697 44.895 1.1957 45.3263 1.60155C45.7577 2.0074 46 2.55786 46 3.13181C46 3.70577 45.7577 4.25623 45.3263 4.66208C44.895 5.06793 44.31 5.29593 43.7 5.29593H2.3C1.69 5.29593 1.10499 5.06793 0.673654 4.66208C0.242321 4.25623 0 3.70577 0 3.13181ZM0 16.1858C0 15.6118 0.242321 15.0614 0.673654 14.6555C1.10499 14.2497 1.69 14.0217 2.3 14.0217H43.7C44.31 14.0217 44.895 14.2497 45.3263 14.6555C45.7577 15.0614 46 15.6118 46 16.1858C46 16.7597 45.7577 17.3102 45.3263 17.716C44.895 18.1219 44.31 18.3499 43.7 18.3499H2.3C1.69 18.3499 1.10499 18.1219 0.673654 17.716C0.242321 17.3102 0 16.7597 0 16.1858ZM2.3 27.0756C1.69 27.0756 1.10499 27.3036 0.673654 27.7095C0.242321 28.1153 0 28.6658 0 29.2397C0 29.8137 0.242321 30.3641 0.673654 30.77C1.10499 31.1758 1.69 31.4039 2.3 31.4039H43.7C44.31 31.4039 44.895 31.1758 45.3263 30.77C45.7577 30.3641 46 29.8137 46 29.2397C46 28.6658 45.7577 28.1153 45.3263 27.7095C44.895 27.3036 44.31 27.0756 43.7 27.0756H2.3Z" fill="#0B0C12"/>
</svg>
