<svg width="50" height="39" viewBox="0 0 50 39" fill="none" xmlns="http://www.w3.org/2000/svg">
<path d="M47.2262 21.6076C47.2262 13.8665 41.8586 7.24884 35.1072 4.47084L30.5582 12.3447V1.54352C30.5582 0.686686 29.8724 0 29.0129 0H20.9915C20.132 0 19.4462 0.686686 19.4462 1.54352V12.343L14.8972 4.47344C8.14584 7.24884 2.77822 13.8639 2.77822 21.6076L2.77736 27.78H47.2253L47.2262 21.6076ZM49.8913 31.4001C49.6743 30.8879 49.1708 30.558 48.6152 30.558H1.38922C1.11813 30.5584 0.853037 30.6379 0.626496 30.7868C0.399955 30.9357 0.221818 31.1475 0.11395 31.3962C-0.105772 31.9063 -0.00272568 32.4979 0.37977 32.9016C0.610604 33.145 6.25246 38.892 24.9241 38.892C43.5957 38.892 49.2402 33.1459 49.5441 32.9019C50.0042 32.4939 50.1084 31.9036 49.8913 31.4001Z" fill="#242833"/>
</svg>
