<svg width="50" height="50" viewBox="0 0 50 50" fill="none" xmlns="http://www.w3.org/2000/svg">
<path fill-rule="evenodd" clip-rule="evenodd" d="M32.9045 2.5C32.7265 2.50156 32.551 2.54111 32.3895 2.616L17.083 9.7265L1.7765 2.6165C0.948 2.231 0 2.836 0 3.75V38.895C3.99744e-05 39.1332 0.0681621 39.3665 0.196343 39.5673C0.324523 39.7681 0.507423 39.9282 0.7235 40.0285L16.5565 47.3835C16.7216 47.4603 16.9014 47.5 17.0835 47.5C17.2656 47.5 17.4454 47.4603 17.6105 47.3835L32.917 40.2735L48.2235 47.3835C49.052 47.7685 50 47.1635 50 46.25V11.105C50 10.8668 49.9318 10.6335 49.8037 10.4327C49.6755 10.2319 49.4926 10.0718 49.2765 9.9715L33.4435 2.6165C33.2747 2.53803 33.0906 2.49823 32.9045 2.5V2.5ZM33.4755 5.3875L47.5 11.9025V44.291L33.661 37.8625L32.161 37.8675L17.823 44.5285L17.6385 12.2255L31.9765 5.565L32.0015 11.005H33.5015L33.4755 5.3875ZM2.5 5.709L16.1375 12.044L16.323 44.519L2.5 38.096V5.709Z" fill="#242833"/>
<path d="M20.6831 33.484H30.5866C30.8449 34.2144 31.323 34.8469 31.9552 35.2946C32.5875 35.7422 33.3429 35.9831 34.1176 35.984C34.8924 35.9832 35.6479 35.7424 36.2803 35.2947C36.9127 34.847 37.3909 34.2145 37.6491 33.484H45.0341V30.984H37.6491C37.3909 30.2535 36.9127 29.621 36.2803 29.1733C35.6479 28.7256 34.8924 28.4848 34.1176 28.484C33.3431 28.4851 32.5879 28.7261 31.9558 29.1737C31.3238 29.6214 30.8458 30.2538 30.5876 30.984H20.6831V33.484ZM20.6831 25.419H23.1451C23.4034 26.1495 23.8816 26.782 24.5139 27.2297C25.1463 27.6774 25.9018 27.9182 26.6766 27.919C27.4513 27.9181 28.2067 27.6772 28.839 27.2296C29.4713 26.7819 29.9494 26.1494 30.2076 25.419H45.0336V22.919H30.2076C29.9494 22.1886 29.4713 21.5561 28.839 21.1084C28.2067 20.6608 27.4513 20.4199 26.6766 20.419C25.902 20.42 25.1467 20.6609 24.5145 21.1086C23.8824 21.5562 23.4043 22.1887 23.1461 22.919H20.6831V25.419ZM20.6831 17.353H35.6411C35.8994 18.0835 36.3776 18.716 37.0099 19.1637C37.6423 19.6114 38.3978 19.8522 39.1726 19.853C39.9473 19.8521 40.7027 19.6112 41.335 19.1636C41.9673 18.7159 42.4454 18.0834 42.7036 17.353H45.0336V14.853H42.7036C42.4454 14.1226 41.9673 13.4901 41.335 13.0424C40.7027 12.5948 39.9473 12.3539 39.1726 12.353C38.3981 12.3541 37.6429 12.5951 37.0108 13.0427C36.3788 13.4904 35.9008 14.1228 35.6426 14.853H20.6826L20.6831 17.353Z" fill="#242833"/>
</svg>
