<svg width="38" height="38" viewBox="0 0 38 38" fill="none" xmlns="http://www.w3.org/2000/svg">
<path fill-rule="evenodd" clip-rule="evenodd" d="M13.5417 23.4271C7.30521 24.5156 0 27.2948 0 31.25V37.5H37.5V31.25C37.5 27.2948 30.1948 24.5156 23.9583 23.4271V28.125H13.5417V23.4271ZM7.29167 37.5V28.125H9.375V37.5H7.29167ZM29.1667 28.125V37.5H31.25V28.125H29.1667ZM19.7917 0.0604168V4.66667C19.7917 4.94293 19.6819 5.20789 19.4866 5.40324C19.2912 5.59859 19.0263 5.70833 18.75 5.70833C18.4737 5.70833 18.2088 5.59859 18.0134 5.40324C17.8181 5.20789 17.7083 4.94293 17.7083 4.66667V0C16.6329 0.0568411 15.5755 0.300039 14.5833 0.71875V6.75C14.5833 7.02627 14.4736 7.29122 14.2782 7.48657C14.0829 7.68192 13.8179 7.79167 13.5417 7.79167C13.2654 7.79167 13.0004 7.68192 12.8051 7.48657C12.6097 7.29122 12.5 7.02627 12.5 6.75V2.01562C11.0729 3.24271 10.25 4.83437 9.98854 6.22917C9.97959 6.27767 9.97125 6.32628 9.96354 6.375L9.94271 6.39583C9.85 7.05104 9.90104 7.59062 10.0344 7.96146C10.1198 8.21949 10.1009 8.50069 9.98188 8.74503C9.86282 8.98937 9.65298 9.1775 9.39713 9.26926C9.14129 9.36102 8.85971 9.34915 8.6125 9.23617C8.36529 9.1232 8.17202 8.91808 8.07396 8.66458C8.0563 8.61632 8.03963 8.5677 8.02396 8.51875C1.975 16.4167 35.5583 16.4125 29.4656 8.50521C29.4499 8.5562 29.4332 8.6069 29.4156 8.65729C29.3196 8.9117 29.1279 9.11846 28.8814 9.23342C28.635 9.34837 28.3534 9.36239 28.0967 9.27249C27.8401 9.18259 27.6288 8.9959 27.5079 8.75229C27.3871 8.50868 27.3663 8.22748 27.45 7.96875C27.6 7.5375 27.6437 7 27.5625 6.40625C27.5563 6.40167 27.55 6.39716 27.5438 6.39271C27.3188 4.98438 26.4625 3.42708 25 2.2V6.75C25 7.02627 24.8903 7.29122 24.6949 7.48657C24.4996 7.68192 24.2346 7.79167 23.9583 7.79167C23.6821 7.79167 23.4171 7.68192 23.2218 7.48657C23.0264 7.29122 22.9167 7.02627 22.9167 6.75V0.897917C22.5099 0.715212 22.0913 0.560342 21.6635 0.434375C21.0515 0.256001 20.4252 0.13054 19.7917 0.0593752V0.0604168Z" fill="#242833"/>
</svg>
