<svg width="53" height="50" viewBox="0 0 53 50" fill="none" xmlns="http://www.w3.org/2000/svg">
<path d="M51.9031 24.5904L27.8223 0.547574C27.649 0.373994 27.443 0.236283 27.2163 0.142324C26.9896 0.048364 26.7465 0 26.5011 0C26.2556 0 26.0126 0.048364 25.7859 0.142324C25.5592 0.236283 25.3532 0.373994 25.1798 0.547574L1.0991 24.5904C0.397546 25.2913 0 26.2434 0 27.2365C0 29.2984 1.67788 30.9749 3.74161 30.9749H6.27888V48.1308C6.27888 49.1647 7.1149 50 8.14969 50H22.7595V36.9155H29.3073V50H44.8525C45.8873 50 46.7233 49.1647 46.7233 48.1308V30.9749H49.2606C50.2544 30.9749 51.2074 30.5835 51.9089 29.8767C53.3647 28.4164 53.3647 26.0507 51.9031 24.5904Z" fill="#0B0C12"/>
</svg>
