<svg width="151" height="80" viewBox="0 0 151 80" fill="none" xmlns="http://www.w3.org/2000/svg">
<path d="M29.1433 67.2613L31.659 53.6898H8.61587L10.9302 41.6985H33.9733L36.7908 27.1044H10.729L13.144 14.5554H56.4127L43.9352 79.8103H0.666504L3.0815 67.2613H29.1433Z" fill="#0B0C12"/>
<path d="M89.0402 35.5634C88.3694 39.3436 86.7929 42.814 84.3108 45.9744C81.8287 49.073 78.4411 51.5828 74.1477 53.5039C69.9215 55.4249 64.9238 56.3855 59.1546 56.3855H48.4884L43.9603 79.8103H26.7534L39.2309 14.5554H67.104C74.4831 14.5554 80.051 16.0737 83.8077 19.1102C87.5644 22.0848 89.4427 26.1439 89.4427 31.2874C89.4427 32.8367 89.3085 34.262 89.0402 35.5634ZM60.1609 43.9294C66.6009 43.9294 70.3911 41.1408 71.5315 35.5634C71.6656 34.5719 71.7327 33.8592 71.7327 33.4254C71.7327 31.4424 71.0284 29.9241 69.6196 28.8706C68.2779 27.7551 66.1984 27.1974 63.3809 27.1974H54.0228L50.9034 43.9294H60.1609Z" fill="#0B0C12"/>
<path d="M56.2508 14.5554L43.9036 80H26.8765L39.2236 14.5554H56.2508Z" fill="#4FD86D"/>
<path d="M147.849 54.7161H130.441L127.321 71.1692H110.819L113.938 54.7161H96.5303L99.2471 40.3079H116.756L119.875 23.7618H136.378L133.258 40.3079H150.666L147.849 54.7161Z" fill="#4FD86D"/>
<path d="M38.9717 0H56.2507V10.3754H38.9717V0Z" fill="#4FD86D"/>
</svg>
