<svg width="38" height="46" viewBox="0 0 38 46" fill="none" xmlns="http://www.w3.org/2000/svg">
<path d="M34.6804 4.94444H24.7916C24.3801 3.74967 23.6123 2.70972 22.5917 1.96472C21.571 1.21971 20.3465 0.805459 19.0832 0.777771C17.8324 0.821322 16.6241 1.24275 15.6175 1.98653C14.611 2.73031 13.8533 3.76156 13.4443 4.94444H3.72211C3.38198 4.89524 3.03528 4.91874 2.70489 5.01338C2.37451 5.10801 2.06795 5.27164 1.80544 5.49345C1.54294 5.71527 1.33046 5.99023 1.18202 6.3002C1.03359 6.61017 0.95258 6.94809 0.944336 7.29166V42.875C0.946154 43.1851 1.00903 43.4917 1.12937 43.7775C1.24971 44.0633 1.42516 44.3225 1.6457 44.5405C1.86624 44.7585 2.12755 44.9308 2.41471 45.0478C2.70188 45.1648 3.00927 45.224 3.31934 45.2222H34.6804C34.9905 45.224 35.2979 45.1648 35.5851 45.0478C35.8722 44.9308 36.1335 44.7585 36.3541 44.5405C36.5746 44.3225 36.7501 44.0633 36.8704 43.7775C36.9908 43.4917 37.0536 43.1851 37.0554 42.875V7.29166C37.0536 6.98159 36.9908 6.67492 36.8704 6.38915C36.7501 6.10339 36.5746 5.84412 36.3541 5.62616C36.1335 5.4082 35.8722 5.23581 35.5851 5.11884C35.2979 5.00187 34.9905 4.94261 34.6804 4.94444ZM9.68045 9.1111C9.68045 8.74275 9.82678 8.38948 10.0872 8.12901C10.3477 7.86855 10.701 7.72222 11.0693 7.72222H15.8471V6.76388C15.8471 6.34165 15.9303 5.92354 16.0919 5.53345C16.2534 5.14335 16.4903 4.7889 16.7888 4.49034C17.0874 4.19177 17.4419 3.95494 17.832 3.79335C18.2221 3.63177 18.6402 3.5486 19.0624 3.5486C19.4846 3.5486 19.9027 3.63177 20.2928 3.79335C20.6829 3.95494 21.0374 4.19177 21.3359 4.49034C21.6345 4.7889 21.8713 5.14335 22.0329 5.53345C22.1945 5.92354 22.2777 6.34165 22.2777 6.76388V7.72222H27.0554C27.4238 7.72222 27.7771 7.86855 28.0375 8.12901C28.298 8.38948 28.4443 8.74275 28.4443 9.1111V11.8889H9.70823L9.68045 9.1111ZM28.7221 36.8889H9.27767V34.1111H28.7221V36.8889ZM28.7221 31.3333H9.27767V28.5555H28.7221V31.3333ZM28.7221 25.7778H9.27767V23H28.7221V25.7778ZM28.7221 20.2222H9.27767V17.4444H28.7221V20.2222Z" fill="#242833"/>
</svg>
